<?xml version="1.0" standalone="no"?><svg xmlns:xlink="http://www.w3.org/1999/xlink" xmlns="http://www.w3.org/2000/svg" viewBox="0 0 1000 545.4589047664716" preserveAspectRatio="xMaxYMax slice"><g transform="scale(1.4985134746331639)"><rect x="0" y="0" width="667.3333333333333" height="364" fill="#ffffff"/><rect x="0" y="0" width="60.67" height="60.67" fill="#fdfeff"/><polygon points="60.67,0 60.67,60.67 0,60.67" fill="#ffffff"/><rect x="60.67" y="0" width="60.67" height="60.67" fill="#fdfeff"/><polygon points="60.67,0 121.34,0 121.34,60.67" fill="#ffffff"/><rect x="121.33333333333333" y="0" width="60.666666666666664" height="60.666666666666664" fill="#ffffff"/><rect x="121.33" y="0" width="30.33" height="30.33" fill="#f8fcfe"/><polygon points="151.66,0 151.66,30.33 121.33,30.33" fill="#f8fcfe"/><rect x="151.67" y="0" width="30.33" height="30.33" fill="#fcfdff"/><polygon points="151.67,0 182,30.33 151.67,30.33" fill="#ffffff"/><rect x="121.33" y="30.33" width="30.33" height="30.33" fill="#fdfeff"/><polygon points="121.33,30.33 151.66,30.33 121.33,60.66" fill="#fafdfe"/><rect x="151.67" y="30.33" width="30.33" height="30.33" fill="#fdfeff"/><polygon points="182,30.33 182,60.66 151.67,60.66" fill="#ffffff"/><rect x="182" y="0" width="60.67" height="60.67" fill="#ffffff"/><polygon points="182,0 242.67000000000002,0 242.67000000000002,60.67" fill="#fbfdff"/><rect x="242.67" y="0" width="60.67" height="60.67" fill="#f8fcfe"/><polygon points="303.34,0 303.34,60.67 242.67,60.67" fill="#ffffff"/><rect x="303.33" y="0" width="60.67" height="60.67" fill="#fcfeff"/><polygon points="303.33,0 364,0 303.33,60.67" fill="#ffffff"/><rect x="364" y="0" width="60.666666666666664" height="60.666666666666664" fill="#ffffff"/><rect x="364" y="0" width="30.33" height="30.33" fill="#fafdfe"/><polygon points="394.33,0 394.33,30.33 364,30.33" fill="#feffff"/><rect x="394.33" y="0" width="30.33" height="30.33" fill="#ffffff"/><polygon points="394.33,0 424.65999999999997,0 424.65999999999997,30.33" fill="#fdfeff"/><rect x="364" y="30.33" width="30.33" height="30.33" fill="#fbfdff"/><polygon points="364,30.33 394.33,30.33 364,60.66" fill="#ffffff"/><rect x="394.33" y="30.33" width="30.33" height="30.33" fill="#fbfdff"/><polygon points="424.65999999999997,30.33 424.65999999999997,60.66 394.33,60.66" fill="#f7fcfe"/><rect x="424.66666666666663" y="0" width="60.666666666666664" height="60.666666666666664" fill="#ffffff"/><rect x="424.67" y="0" width="30.33" height="30.33" fill="#f7fbfe"/><polygon points="424.67,0 455,30.33 424.67,30.33" fill="#fcfdff"/><rect x="455" y="0" width="30.33" height="30.33" fill="#fefeff"/><polygon points="455,0 485.33,0 485.33,30.33" fill="#f6fbfe"/><rect x="424.67" y="30.33" width="30.33" height="30.33" fill="#fafdfe"/><polygon points="424.67,30.33 455,30.33 424.67,60.66" fill="#f6fbfe"/><rect x="455" y="30.33" width="30.33" height="30.33" fill="#ffffff"/><polygon points="485.33,30.33 485.33,60.66 455,60.66" fill="#f6fbfe"/><rect x="485.3333333333333" y="0" width="60.666666666666664" height="60.666666666666664" fill="#ffffff"/><rect x="485.33" y="0" width="30.33" height="30.33" fill="#ffffff"/><polygon points="485.33,0 515.66,30.33 485.33,30.33" fill="#fbfdff"/><rect x="515.67" y="0" width="30.33" height="30.33" fill="#fdfeff"/><polygon points="515.67,0 546,0 546,30.33" fill="#f9fcfe"/><rect x="485.33" y="30.33" width="30.33" height="30.33" fill="#ffffff"/><polygon points="515.66,30.33 515.66,60.66 485.33,60.66" fill="#ffffff"/><rect x="515.67" y="30.33" width="30.33" height="30.33" fill="#ffffff"/><polygon points="515.67,30.33 546,30.33 515.67,60.66" fill="#ffffff"/><rect x="546" y="0" width="60.67" height="60.67" fill="#ffffff"/><polygon points="546,0 606.67,0 606.67,60.67" fill="#ffffff"/><rect x="606.6666666666666" y="0" width="60.666666666666664" height="60.666666666666664" fill="#ffffff"/><rect x="606.67" y="0" width="30.33" height="30.33" fill="#ffffff"/><polygon points="606.67,0 637,0 637,30.33" fill="#fefeff"/><rect x="637" y="0" width="30.33" height="30.33" fill="#ffffff"/><polygon points="667.33,0 667.33,30.33 637,30.33" fill="#fdfeff"/><rect x="606.67" y="30.33" width="30.33" height="30.33" fill="#ffffff"/><polygon points="606.67,30.33 637,30.33 637,60.66" fill="#fbfdff"/><rect x="637" y="30.33" width="30.33" height="30.33" fill="#ffffff"/><polygon points="637,30.33 667.33,30.33 637,60.66" fill="#f7fbfe"/><rect x="0" y="60.666666666666664" width="60.666666666666664" height="60.666666666666664" fill="#ffffff"/><rect x="0" y="60.67" width="30.33" height="30.33" fill="#feffff"/><polygon points="0,60.67 30.33,91 0,91" fill="#ffffff"/><rect x="30.33" y="60.67" width="30.33" height="30.33" fill="#fcfdff"/><polygon points="60.66,60.67 60.66,91 30.33,91" fill="#fafdfe"/><rect x="0" y="91" width="30.33" height="30.33" fill="#fdfeff"/><polygon points="0,91 30.33,91 30.33,121.33" fill="#ffffff"/><rect x="30.33" y="91" width="30.33" height="30.33" fill="#f9fcfe"/><polygon points="30.33,91 60.66,91 60.66,121.33" fill="#f8fcfe"/><rect x="60.67" y="60.67" width="60.67" height="60.67" fill="#fbfdff"/><polygon points="60.67,60.67 121.34,60.67 121.34,121.34" fill="#ffffff"/><rect x="121.33333333333333" y="60.666666666666664" width="60.666666666666664" height="60.666666666666664" fill="#ffffff"/><rect x="121.33" y="60.67" width="30.33" height="30.33" fill="#ffffff"/><polygon points="151.66,60.67 151.66,91 121.33,91" fill="#ffffff"/><rect x="151.67" y="60.67" width="30.33" height="30.33" fill="#fafdfe"/><polygon points="182,60.67 182,91 151.67,91" fill="#ffffff"/><rect x="121.33" y="91" width="30.33" height="30.33" fill="#ffffff"/><polygon points="151.66,91 151.66,121.33 121.33,121.33" fill="#ffffff"/><rect x="151.67" y="91" width="30.33" height="30.33" fill="#ffffff"/><polygon points="151.67,91 182,91 182,121.33" fill="#fefeff"/><rect x="182" y="60.67" width="60.67" height="60.67" fill="#ffffff"/><polygon points="182,60.67 242.67000000000002,121.34 182,121.34" fill="#ffffff"/><rect x="242.67" y="60.67" width="60.67" height="60.67" fill="#ffffff"/><polygon points="242.67,60.67 303.34,121.34 242.67,121.34" fill="#f7fcfe"/><rect x="303.33" y="60.67" width="60.67" height="60.67" fill="#fbfdff"/><polygon points="364,60.67 364,121.34 303.33,121.34" fill="#fbfdff"/><rect x="364" y="60.666666666666664" width="60.666666666666664" height="60.666666666666664" fill="#ffffff"/><rect x="364" y="60.67" width="30.33" height="30.33" fill="#ffffff"/><polygon points="364,60.67 394.33,60.67 364,91" fill="#f6fbfe"/><rect x="394.33" y="60.67" width="30.33" height="30.33" fill="#fafdfe"/><polygon points="394.33,60.67 424.65999999999997,60.67 424.65999999999997,91" fill="#fbfdff"/><rect x="364" y="91" width="30.33" height="30.33" fill="#ffffff"/><polygon points="394.33,91 394.33,121.33 364,121.33" fill="#ffffff"/><rect x="394.33" y="91" width="30.33" height="30.33" fill="#ffffff"/><polygon points="424.65999999999997,91 424.65999999999997,121.33 394.33,121.33" fill="#ffffff"/><rect x="424.67" y="60.67" width="60.67" height="60.67" fill="#ffffff"/><polygon points="424.67,60.67 485.34000000000003,60.67 424.67,121.34" fill="#fafdfe"/><rect x="485.3333333333333" y="60.666666666666664" width="60.666666666666664" height="60.666666666666664" fill="#ffffff"/><rect x="485.33" y="60.67" width="30.33" height="30.33" fill="#ffffff"/><polygon points="485.33,60.67 515.66,60.67 515.66,91" fill="#ffffff"/><rect x="515.67" y="60.67" width="30.33" height="30.33" fill="#ffffff"/><polygon points="546,60.67 546,91 515.67,91" fill="#ffffff"/><rect x="485.33" y="91" width="30.33" height="30.33" fill="#ffffff"/><polygon points="485.33,91 515.66,121.33 485.33,121.33" fill="#ffffff"/><rect x="515.67" y="91" width="30.33" height="30.33" fill="#ffffff"/><polygon points="515.67,91 546,121.33 515.67,121.33" fill="#fdfeff"/><rect x="546" y="60.666666666666664" width="60.666666666666664" height="60.666666666666664" fill="#ffffff"/><rect x="546" y="60.67" width="30.33" height="30.33" fill="#fcfeff"/><polygon points="546,60.67 576.33,91 546,91" fill="#ffffff"/><rect x="576.33" y="60.67" width="30.33" height="30.33" fill="#ffffff"/><polygon points="606.6600000000001,60.67 606.6600000000001,91 576.33,91" fill="#fafdfe"/><rect x="546" y="91" width="30.33" height="30.33" fill="#ffffff"/><polygon points="576.33,91 576.33,121.33 546,121.33" fill="#ffffff"/><rect x="576.33" y="91" width="30.33" height="30.33" fill="#f7fcfe"/><polygon points="576.33,91 606.6600000000001,91 576.33,121.33" fill="#ffffff"/><rect x="606.67" y="60.67" width="60.67" height="60.67" fill="#f7fcfe"/><polygon points="606.67,60.67 667.3399999999999,60.67 606.67,121.34" fill="#ffffff"/><rect x="0" y="121.33333333333333" width="60.666666666666664" height="60.666666666666664" fill="#ffffff"/><rect x="0" y="121.33" width="30.33" height="30.33" fill="#ffffff"/><polygon points="0,121.33 30.33,121.33 0,151.66" fill="#ffffff"/><rect x="30.33" y="121.33" width="30.33" height="30.33" fill="#f9fcfe"/><polygon points="30.33,121.33 60.66,121.33 30.33,151.66" fill="#ffffff"/><rect x="0" y="151.67" width="30.33" height="30.33" fill="#ffffff"/><polygon points="0,151.67 30.33,182 0,182" fill="#ffffff"/><rect x="30.33" y="151.67" width="30.33" height="30.33" fill="#ffffff"/><polygon points="30.33,151.67 60.66,151.67 60.66,182" fill="#ffffff"/><rect x="60.67" y="121.33" width="60.67" height="60.67" fill="#feffff"/><polygon points="60.67,121.33 121.34,182 60.67,182" fill="#ffffff"/><rect x="121.33333333333333" y="121.33333333333333" width="60.666666666666664" height="60.666666666666664" fill="#ffffff"/><rect x="121.33" y="121.33" width="30.33" height="30.33" fill="#ffffff"/><polygon points="121.33,121.33 151.66,151.66 121.33,151.66" fill="#ffffff"/><rect x="151.67" y="121.33" width="30.33" height="30.33" fill="#ffffff"/><polygon points="151.67,121.33 182,151.66 151.67,151.66" fill="#fbfdff"/><rect x="121.33" y="151.67" width="30.33" height="30.33" fill="#ffffff"/><polygon points="121.33,151.67 151.66,151.67 151.66,182" fill="#fbfdff"/><rect x="151.67" y="151.67" width="30.33" height="30.33" fill="#ffffff"/><polygon points="151.67,151.67 182,182 151.67,182" fill="#fbfdff"/><rect x="182" y="121.33" width="60.67" height="60.67" fill="#f9fcfe"/><polygon points="242.67000000000002,121.33 242.67000000000002,182 182,182" fill="#ffffff"/><rect x="242.67" y="121.33" width="60.67" height="60.67" fill="#ffffff"/><polygon points="242.67,121.33 303.34,121.33 303.34,182" fill="#f8fcfe"/><rect x="303.3333333333333" y="121.33333333333333" width="60.666666666666664" height="60.666666666666664" fill="#ffffff"/><rect x="303.33" y="121.33" width="30.33" height="30.33" fill="#ffffff"/><polygon points="333.65999999999997,121.33 333.65999999999997,151.66 303.33,151.66" fill="#fafdfe"/><rect x="333.67" y="121.33" width="30.33" height="30.33" fill="#fbfdff"/><polygon points="333.67,121.33 364,121.33 333.67,151.66" fill="#fefeff"/><rect x="303.33" y="151.67" width="30.33" height="30.33" fill="#fbfdff"/><polygon points="333.65999999999997,151.67 333.65999999999997,182 303.33,182" fill="#ffffff"/><rect x="333.67" y="151.67" width="30.33" height="30.33" fill="#ffffff"/><polygon points="333.67,151.67 364,182 333.67,182" fill="#ffffff"/><rect x="364" y="121.33333333333333" width="60.666666666666664" height="60.666666666666664" fill="#ffffff"/><rect x="364" y="121.33" width="30.33" height="30.33" fill="#fafdfe"/><polygon points="364,121.33 394.33,121.33 364,151.66" fill="#fbfdff"/><rect x="394.33" y="121.33" width="30.33" height="30.33" fill="#ffffff"/><polygon points="394.33,121.33 424.65999999999997,121.33 424.65999999999997,151.66" fill="#fcfdff"/><rect x="364" y="151.67" width="30.33" height="30.33" fill="#ffffff"/><polygon points="394.33,151.67 394.33,182 364,182" fill="#ffffff"/><rect x="394.33" y="151.67" width="30.33" height="30.33" fill="#ffffff"/><polygon points="424.65999999999997,151.67 424.65999999999997,182 394.33,182" fill="#ffffff"/><rect x="424.67" y="121.33" width="60.67" height="60.67" fill="#fafdfe"/><polygon points="424.67,121.33 485.34000000000003,182 424.67,182" fill="#ffffff"/><rect x="485.3333333333333" y="121.33333333333333" width="60.666666666666664" height="60.666666666666664" fill="#ffffff"/><rect x="485.33" y="121.33" width="30.33" height="30.33" fill="#ffffff"/><polygon points="485.33,121.33 515.66,121.33 485.33,151.66" fill="#fafdfe"/><rect x="515.67" y="121.33" width="30.33" height="30.33" fill="#ffffff"/><polygon points="515.67,121.33 546,121.33 515.67,151.66" fill="#ffffff"/><rect x="485.33" y="151.67" width="30.33" height="30.33" fill="#fbfdff"/><polygon points="485.33,151.67 515.66,182 485.33,182" fill="#ffffff"/><rect x="515.67" y="151.67" width="30.33" height="30.33" fill="#ffffff"/><polygon points="515.67,151.67 546,151.67 515.67,182" fill="#fefeff"/><rect x="546" y="121.33" width="60.67" height="60.67" fill="#ffffff"/><polygon points="546,121.33 606.67,121.33 546,182" fill="#ffffff"/><rect x="606.6666666666666" y="121.33333333333333" width="60.666666666666664" height="60.666666666666664" fill="#ffffff"/><rect x="606.67" y="121.33" width="30.33" height="30.33" fill="#fafdfe"/><polygon points="637,121.33 637,151.66 606.67,151.66" fill="#f8fcfe"/><rect x="637" y="121.33" width="30.33" height="30.33" fill="#f7fbfe"/><polygon points="667.33,121.33 667.33,151.66 637,151.66" fill="#fafdfe"/><rect x="606.67" y="151.67" width="30.33" height="30.33" fill="#ffffff"/><polygon points="637,151.67 637,182 606.67,182" fill="#fbfdff"/><rect x="637" y="151.67" width="30.33" height="30.33" fill="#ffffff"/><polygon points="667.33,151.67 667.33,182 637,182" fill="#fefeff"/><rect x="0" y="182" width="60.67" height="60.67" fill="#ffffff"/><polygon points="0,182 60.67,242.67000000000002 0,242.67000000000002" fill="#fdfeff"/><rect x="60.666666666666664" y="182" width="60.666666666666664" height="60.666666666666664" fill="#ffffff"/><rect x="60.67" y="182" width="30.33" height="30.33" fill="#ffffff"/><polygon points="60.67,182 91,182 60.67,212.32999999999998" fill="#feffff"/><rect x="91" y="182" width="30.33" height="30.33" fill="#fcfeff"/><polygon points="91,182 121.33,182 121.33,212.32999999999998" fill="#ffffff"/><rect x="60.67" y="212.33" width="30.33" height="30.33" fill="#f8fcfe"/><polygon points="60.67,212.33 91,242.66000000000003 60.67,242.66000000000003" fill="#ffffff"/><rect x="91" y="212.33" width="30.33" height="30.33" fill="#fcfeff"/><polygon points="91,212.33 121.33,242.66000000000003 91,242.66000000000003" fill="#ffffff"/><rect x="121.33" y="182" width="60.67" height="60.67" fill="#ffffff"/><polygon points="121.33,182 182,182 121.33,242.67000000000002" fill="#ffffff"/><rect x="182" y="182" width="60.666666666666664" height="60.666666666666664" fill="#ffffff"/><rect x="182" y="182" width="30.33" height="30.33" fill="#fcfeff"/><polygon points="182,182 212.32999999999998,212.32999999999998 182,212.32999999999998" fill="#ffffff"/><rect x="212.33" y="182" width="30.33" height="30.33" fill="#f8fcfe"/><polygon points="212.33,182 242.66000000000003,182 212.33,212.32999999999998" fill="#fcfeff"/><rect x="182" y="212.33" width="30.33" height="30.33" fill="#feffff"/><polygon points="212.32999999999998,212.33 212.32999999999998,242.66000000000003 182,242.66000000000003" fill="#f8fcfe"/><rect x="212.33" y="212.33" width="30.33" height="30.33" fill="#ffffff"/><polygon points="212.33,212.33 242.66000000000003,212.33 212.33,242.66000000000003" fill="#ffffff"/><rect x="242.67" y="182" width="60.67" height="60.67" fill="#ffffff"/><polygon points="303.34,182 303.34,242.67000000000002 242.67,242.67000000000002" fill="#ffffff"/><rect x="303.33" y="182" width="60.67" height="60.67" fill="#f9fdfe"/><polygon points="303.33,182 364,182 303.33,242.67000000000002" fill="#f8fcfe"/><rect x="364" y="182" width="60.67" height="60.67" fill="#ffffff"/><polygon points="364,182 424.67,182 364,242.67000000000002" fill="#f7fcfe"/><rect x="424.67" y="182" width="60.67" height="60.67" fill="#fdfeff"/><polygon points="424.67,182 485.34000000000003,182 485.34000000000003,242.67000000000002" fill="#ffffff"/><rect x="485.33" y="182" width="60.67" height="60.67" fill="#fcfeff"/><polygon points="546,182 546,242.67000000000002 485.33,242.67000000000002" fill="#fcfdff"/><rect x="546" y="182" width="60.666666666666664" height="60.666666666666664" fill="#ffffff"/><rect x="546" y="182" width="30.33" height="30.33" fill="#ffffff"/><polygon points="546,182 576.33,182 576.33,212.32999999999998" fill="#fcfeff"/><rect x="576.33" y="182" width="30.33" height="30.33" fill="#ffffff"/><polygon points="606.6600000000001,182 606.6600000000001,212.32999999999998 576.33,212.32999999999998" fill="#ffffff"/><rect x="546" y="212.33" width="30.33" height="30.33" fill="#ffffff"/><polygon points="546,212.33 576.33,242.66000000000003 546,242.66000000000003" fill="#ffffff"/><rect x="576.33" y="212.33" width="30.33" height="30.33" fill="#ffffff"/><polygon points="576.33,212.33 606.6600000000001,212.33 576.33,242.66000000000003" fill="#f8fcfe"/><rect x="606.67" y="182" width="60.67" height="60.67" fill="#ffffff"/><polygon points="606.67,182 667.3399999999999,182 606.67,242.67000000000002" fill="#fcfeff"/><rect x="0" y="242.67" width="60.67" height="60.67" fill="#f9fcfe"/><polygon points="0,242.67 60.67,303.34 0,303.34" fill="#fbfdff"/><rect x="60.666666666666664" y="242.66666666666666" width="60.666666666666664" height="60.666666666666664" fill="#ffffff"/><rect x="60.67" y="242.67" width="30.33" height="30.33" fill="#f9fcfe"/><polygon points="60.67,242.67 91,242.67 91,273" fill="#f6fbfe"/><rect x="91" y="242.67" width="30.33" height="30.33" fill="#ffffff"/><polygon points="121.33,242.67 121.33,273 91,273" fill="#ffffff"/><rect x="60.67" y="273" width="30.33" height="30.33" fill="#ffffff"/><polygon points="60.67,273 91,273 60.67,303.33" fill="#ffffff"/><rect x="91" y="273" width="30.33" height="30.33" fill="#ffffff"/><polygon points="91,273 121.33,273 121.33,303.33" fill="#ffffff"/><rect x="121.33" y="242.67" width="60.67" height="60.67" fill="#feffff"/><polygon points="121.33,242.67 182,242.67 182,303.34" fill="#f9fcfe"/><rect x="182" y="242.67" width="60.67" height="60.67" fill="#f8fcfe"/><polygon points="182,242.67 242.67000000000002,242.67 182,303.34" fill="#fbfdff"/><rect x="242.66666666666666" y="242.66666666666666" width="60.666666666666664" height="60.666666666666664" fill="#ffffff"/><rect x="242.67" y="242.67" width="30.33" height="30.33" fill="#ffffff"/><polygon points="242.67,242.67 273,273 242.67,273" fill="#f9fcfe"/><rect x="273" y="242.67" width="30.33" height="30.33" fill="#fafdfe"/><polygon points="273,242.67 303.33,242.67 273,273" fill="#f6fbfe"/><rect x="242.67" y="273" width="30.33" height="30.33" fill="#f9fcfe"/><polygon points="273,273 273,303.33 242.67,303.33" fill="#ffffff"/><rect x="273" y="273" width="30.33" height="30.33" fill="#ffffff"/><polygon points="273,273 303.33,273 303.33,303.33" fill="#ffffff"/><rect x="303.33" y="242.67" width="60.67" height="60.67" fill="#f8fcfe"/><polygon points="303.33,242.67 364,242.67 303.33,303.34" fill="#ffffff"/><rect x="364" y="242.67" width="60.67" height="60.67" fill="#f6fbfe"/><polygon points="424.67,242.67 424.67,303.34 364,303.34" fill="#fdfeff"/><rect x="424.66666666666663" y="242.66666666666666" width="60.666666666666664" height="60.666666666666664" fill="#ffffff"/><rect x="424.67" y="242.67" width="30.33" height="30.33" fill="#ffffff"/><polygon points="424.67,242.67 455,273 424.67,273" fill="#f8fcfe"/><rect x="455" y="242.67" width="30.33" height="30.33" fill="#ffffff"/><polygon points="455,242.67 485.33,242.67 485.33,273" fill="#f7fcfe"/><rect x="424.67" y="273" width="30.33" height="30.33" fill="#ffffff"/><polygon points="424.67,273 455,303.33 424.67,303.33" fill="#ffffff"/><rect x="455" y="273" width="30.33" height="30.33" fill="#fdfeff"/><polygon points="485.33,273 485.33,303.33 455,303.33" fill="#fdfeff"/><rect x="485.3333333333333" y="242.66666666666666" width="60.666666666666664" height="60.666666666666664" fill="#ffffff"/><rect x="485.33" y="242.67" width="30.33" height="30.33" fill="#feffff"/><polygon points="485.33,242.67 515.66,273 485.33,273" fill="#fbfdff"/><rect x="515.67" y="242.67" width="30.33" height="30.33" fill="#fefeff"/><polygon points="515.67,242.67 546,273 515.67,273" fill="#f9fcfe"/><rect x="485.33" y="273" width="30.33" height="30.33" fill="#fefeff"/><polygon points="485.33,273 515.66,273 515.66,303.33" fill="#f9fcfe"/><rect x="515.67" y="273" width="30.33" height="30.33" fill="#f9fcfe"/><polygon points="515.67,273 546,273 515.67,303.33" fill="#ffffff"/><rect x="546" y="242.67" width="60.67" height="60.67" fill="#f9fcfe"/><polygon points="546,242.67 606.67,242.67 606.67,303.34" fill="#f9fcfe"/><rect x="606.67" y="242.67" width="60.67" height="60.67" fill="#fbfdff"/><polygon points="667.3399999999999,242.67 667.3399999999999,303.34 606.67,303.34" fill="#fdfeff"/><rect x="0" y="303.33" width="60.67" height="60.67" fill="#f7fbfe"/><polygon points="60.67,303.33 60.67,364 0,364" fill="#ffffff"/><rect x="60.67" y="303.33" width="60.67" height="60.67" fill="#fdfeff"/><polygon points="121.34,303.33 121.34,364 60.67,364" fill="#ffffff"/><rect x="121.33" y="303.33" width="60.67" height="60.67" fill="#ffffff"/><polygon points="121.33,303.33 182,364 121.33,364" fill="#f8fcfe"/><rect x="182" y="303.3333333333333" width="60.666666666666664" height="60.666666666666664" fill="#ffffff"/><rect x="182" y="303.33" width="30.33" height="30.33" fill="#fafdfe"/><polygon points="182,303.33 212.32999999999998,303.33 212.32999999999998,333.65999999999997" fill="#ffffff"/><rect x="212.33" y="303.33" width="30.33" height="30.33" fill="#ffffff"/><polygon points="212.33,303.33 242.66000000000003,303.33 212.33,333.65999999999997" fill="#feffff"/><rect x="182" y="333.67" width="30.33" height="30.33" fill="#f7fbfe"/><polygon points="182,333.67 212.32999999999998,333.67 182,364" fill="#ffffff"/><rect x="212.33" y="333.67" width="30.33" height="30.33" fill="#ffffff"/><polygon points="212.33,333.67 242.66000000000003,333.67 212.33,364" fill="#ffffff"/><rect x="242.66666666666666" y="303.3333333333333" width="60.666666666666664" height="60.666666666666664" fill="#ffffff"/><rect x="242.67" y="303.33" width="30.33" height="30.33" fill="#ffffff"/><polygon points="242.67,303.33 273,333.65999999999997 242.67,333.65999999999997" fill="#ffffff"/><rect x="273" y="303.33" width="30.33" height="30.33" fill="#feffff"/><polygon points="273,303.33 303.33,333.65999999999997 273,333.65999999999997" fill="#ffffff"/><rect x="242.67" y="333.67" width="30.33" height="30.33" fill="#ffffff"/><polygon points="242.67,333.67 273,333.67 273,364" fill="#ffffff"/><rect x="273" y="333.67" width="30.33" height="30.33" fill="#ffffff"/><polygon points="273,333.67 303.33,333.67 273,364" fill="#ffffff"/><rect x="303.33" y="303.33" width="60.67" height="60.67" fill="#f8fcfe"/><polygon points="303.33,303.33 364,303.33 303.33,364" fill="#ffffff"/><rect x="364" y="303.33" width="60.67" height="60.67" fill="#ffffff"/><polygon points="424.67,303.33 424.67,364 364,364" fill="#ffffff"/><rect x="424.67" y="303.33" width="60.67" height="60.67" fill="#ffffff"/><polygon points="424.67,303.33 485.34000000000003,364 424.67,364" fill="#feffff"/><rect x="485.33" y="303.33" width="60.67" height="60.67" fill="#ffffff"/><polygon points="485.33,303.33 546,364 485.33,364" fill="#ffffff"/><rect x="546" y="303.33" width="60.67" height="60.67" fill="#ffffff"/><polygon points="606.67,303.33 606.67,364 546,364" fill="#f8fcfe"/><rect x="606.6666666666666" y="303.3333333333333" width="60.666666666666664" height="60.666666666666664" fill="#ffffff"/><rect x="606.67" y="303.33" width="30.33" height="30.33" fill="#fafdfe"/><polygon points="637,303.33 637,333.65999999999997 606.67,333.65999999999997" fill="#f8fcfe"/><rect x="637" y="303.33" width="30.33" height="30.33" fill="#ffffff"/><polygon points="637,303.33 667.33,303.33 637,333.65999999999997" fill="#fcfeff"/><rect x="606.67" y="333.67" width="30.33" height="30.33" fill="#ffffff"/><polygon points="606.67,333.67 637,364 606.67,364" fill="#fafdfe"/><rect x="637" y="333.67" width="30.33" height="30.33" fill="#ffffff"/><polygon points="637,333.67 667.33,333.67 667.33,364" fill="#ffffff"/></g></svg>